inDegrees=no
num_controls=7
num_derivatives=13
num_iterations=133
num_multipliers=7
num_parameters=0
num_slacks=7
num_states=26
objective=5.535040
objective_accelerations=0.615725
objective_balance=0.049799
objective_effort=0.505571
objective_height=4.261101
objective_ligament=0.102844
solver_duration=1559.492868
status=Solve_Succeeded
success=true
DataType=double
version=3
OpenSimVersion=4.4-2022-07-23-0e9fedc
endheader
time	/jointset/ground_pelvis/pelvis_tilt/value	/jointset/ground_pelvis/pelvis_tx/value	/jointset/ground_pelvis/pelvis_ty/value	/jointset/hip_l/hip_flexion_l/value	/jointset/hip_l/hip_adduction_l/value	/jointset/hip_l/hip_rotation_l/value	/jointset/back/lumbar_extension/value	/jointset/patellofemoral_l/patellar_flexion_l/value	/jointset/knee_l/knee_flexion_l/value	/jointset/knee_l/knee_adduction_l/value	/jointset/knee_l/knee_rotation_l/value	/jointset/ankle_l/ankle_angle_l/value	/jointset/subtalar_l/subtalar_angle_l/value	/jointset/ground_pelvis/pelvis_tilt/speed	/jointset/ground_pelvis/pelvis_tx/speed	/jointset/ground_pelvis/pelvis_ty/speed	/jointset/hip_l/hip_flexion_l/speed	/jointset/hip_l/hip_adduction_l/speed	/jointset/hip_l/hip_rotation_l/speed	/jointset/back/lumbar_extension/speed	/jointset/patellofemoral_l/patellar_flexion_l/speed	/jointset/knee_l/knee_flexion_l/speed	/jointset/knee_l/knee_adduction_l/speed	/jointset/knee_l/knee_rotation_l/speed	/jointset/ankle_l/ankle_angle_l/speed	/jointset/subtalar_l/subtalar_angle_l/speed	/forceset/tau_hip_flexion_l	/forceset/tau_hip_adduction_l	/forceset/tau_hip_rotation_l	/forceset/tau_knee_flexion_l	/forceset/tau_ankle_angle_l	/forceset/tau_subtalar_angle_l	/forceset/tau_lumbar_extension	lambda_cid13_p0	lambda_cid13_p1	lambda_cid13_p2	lambda_cid13_p3	lambda_cid13_p4	lambda_cid13_p5	lambda_cid14_p0	/jointset/ground_pelvis/pelvis_tilt/accel	/jointset/ground_pelvis/pelvis_tx/accel	/jointset/ground_pelvis/pelvis_ty/accel	/jointset/hip_l/hip_flexion_l/accel	/jointset/hip_l/hip_adduction_l/accel	/jointset/hip_l/hip_rotation_l/accel	/jointset/back/lumbar_extension/accel	/jointset/patellofemoral_l/patellar_flexion_l/accel	/jointset/knee_l/knee_flexion_l/accel	/jointset/knee_l/knee_adduction_l/accel	/jointset/knee_l/knee_rotation_l/accel	/jointset/ankle_l/ankle_angle_l/accel	/jointset/subtalar_l/subtalar_angle_l/accel	gamma_cid13_p0	gamma_cid13_p1	gamma_cid13_p2	gamma_cid13_p3	gamma_cid13_p4	gamma_cid13_p5	gamma_cid14_p0
0	-0.1593338120862186	0.05826512402617442	0.8979710211748047	0.3774920279260975	-0.2595405593475912	-0.266090318719292	-0.0126506700172305	0.03223623128436708	0.03223623128433527	-0.1745328020990315	0.1679623288895837	-0.04231376238535053	-0.009744922691176834	0	0	0	0	0	0	0	0	0	0	0	0	0	0.136706004491692	-0.05673187039515327	-0.04434791983534968	-0.2611929188284522	0.2264881643860433	-0.04044948759844984	-0.08904801562137005	30.17370252951331	5.684590541561927	6.229432648921217	24.51404138258815	-588.12801715629	-63.63457515075216	-38.86821862179973	-4.913866479533375	-2.812177964096232	-1.197703977671612	13.45910549265424	-1.080354329127326	2.487414651305575	-5.977951917279317	8.109280063791868	8.109280063796607	0.09090319896690374	0.2576747424206869	-0.4382363315776884	-1.208726357001133	1.558276300553602e-09	6.967071347094903e-08	3.376956315318756e-08	-1.706488786813981e-08	1.180057543089414e-07	5.039725879441587e-08	-4.815007221647766e-09
0.01	-0.1595720061788874	0.05812645684257104	0.8979124188038352	0.3781490591482327	-0.2595946686055328	-0.2659660312281388	-0.01295069677702283	0.03263232660226711	0.03263232660230431	-0.1745306733514146	0.1679723001552077	-0.04233695593524076	-0.009805729045907102	-0.04741514635716708	-0.02757891320089173	-0.01167613267523498	0.1307739611860934	-0.01076935363520459	0.02479097227610617	-0.05959066038616254	0.07886065191511213	0.07886065191511678	0.0004247373333574754	0.001940938749062103	-0.004577629279715555	-0.01209401880787972	0.1319877583017622	-0.06584353637772705	-0.04362020819046969	-0.2575290077399059	0.2214556399872736	-0.0289048970209889	-0.08483839157406638	29.00480186944615	1.139090525255211	6.652957496037131	23.80213689761112	-589.219206323432	-72.49038624847118	-38.87991859748238	-4.621793226451578	-2.707572884225181	-1.145893083874668	12.79169590327752	-1.067360248791853	2.464955634963225	-5.887419362575612	7.720696968344456	7.7206969683416	0.0181187862222123	0.1543031472523899	-0.4583627158643636	-1.199666917628641	-2.22243577392413e-08	9.467844049986009e-08	7.097933825490207e-08	1.244526715022237e-09	-7.141776256953328e-09	5.772958368766629e-08	-1.072303675904742e-08
0.02	-0.1602776426376626	0.05771663554972858	0.8977383900718278	0.380094860876594	-0.2597548982734463	-0.2655958305903866	-0.01383418939332439	0.03380627628196135	0.0338062762819528	-0.1745243252723493	0.168000080749463	-0.04240409307586736	-0.009985461043705247	-0.09348847321995127	-0.05423082184781611	-0.02308527220757026	0.2577541012397726	-0.02122408199343881	0.04918262932020841	-0.1166931713038536	0.155570872349172	0.155570872349142	0.0008438660947060962	0.00356186574228971	-0.008788718147270154	-0.023785128613689	0.1272695121120513	-0.07495520236030023	-0.04289249654608587	-0.253865096651346	0.2164231155884626	-0.01736030644352866	-0.08062876752648049	27.90730483759502	-3.418147101787974	7.077482013885737	23.04717457605593	-589.1619366722591	-81.25793464926909	-38.91436503771045	-4.645502580656371	-2.626777053303169	-1.144305349091806	12.70034126617118	-1.017429273734816	2.407551604904726	-5.480322023584643	7.67919376758157	7.679193767578444	0.08978148456204491	0.1936723912540205	-0.3649282491463805	-1.128144556588783	-4.60069917790362e-08	1.196861675287711e-07	1.081891133566166e-07	1.955394129818429e-08	-1.322893068228481e-07	6.506190858091672e-08	-1.663106629644708e-08
0.03	-0.1614375313059799	0.05704482026357948	0.8974513394698099	0.3832921597957034	-0.2600178338193526	-0.2649841945674716	-0.01527593551192486	0.03573692990979972	0.03573692990978599	-0.1745134643720769	0.1680429947021177	-0.04251152497817112	-0.01027982647199815	-0.1382476945796195	-0.07998605401580108	-0.03430073877366468	0.3810783871600442	-0.03129672597648386	0.07302662625207849	-0.171249590603961	0.2302184792705873	0.2302184792706189	0.001333605978287587	0.005018472269560633	-0.01264346189647776	-0.0350083356058558	0.1212410050870393	-0.07015129922365355	-0.04212149240961077	-0.2490509067827771	0.212979265165947	-0.01927407579416421	-0.07556680887871783	26.7902804313659	-2.487124704861753	7.038375314196574	22.6816550183276	-588.8778846251495	-78.48943598686409	-38.97039393360961	-4.354903275446244	-2.527965110574252	-1.106577860738051	12.05436906389126	-0.992250866497846	2.355115932263311	-5.382332610505973	7.306341413179444	7.306341413190331	0.0293891208273154	0.1212728922041912	-0.3876183365237152	-1.107496531462402	-5.914242023444993e-08	1.280448358096793e-07	1.250892665033109e-07	3.171459489517528e-08	-2.222941386036945e-07	6.914033328931437e-08	-1.925366845098936e-08
0.04	-0.1630377664602318	0.05611983889334228	0.8970528520920606	0.3877038809357957	-0.2603795095862668	-0.2641376601362158	-0.01725105196896485	0.03840381905858056	0.03840381905857738	-0.174497542296476	0.1681003983417904	-0.04265587849770835	-0.01068404152239856	-0.1815577704122181	-0.1048640386654365	-0.04537262735383615	0.5006385454377307	-0.04097212619584541	0.09616231098134753	-0.2233672389952531	0.3028179765423417	0.3028179765424505	0.001856101084622055	0.006459803146469986	-0.01617304159430947	-0.04575505303533096	0.1152124980617757	-0.06534739608723246	-0.04135048827311923	-0.2442367169144198	0.2095354147432949	-0.02118784514504982	-0.07050485023099189	25.73781019868121	-1.566064810421364	6.999327153083254	22.27124512584999	-587.5695026259014	-75.63676738268857	-39.04681814596966	-4.355673475241961	-2.451327549633878	-1.115589751907287	11.94751573765415	-0.937980520998813	2.265889164384464	-4.992567841821313	7.269571837649544	7.269571837649544	0.09633252911126505	0.1906172611818714	-0.2998954388720818	-1.032846644051348	-7.20583186778146e-08	1.36060224528773e-07	1.415706645581491e-07	4.374846991513183e-08	-3.115743786570141e-07	7.315166727225115e-08	-2.180852983475107e-08
0.05	-0.1650644735914478	0.05495038996401878	0.8965441030106228	0.393293411307146	-0.2608358355477712	-0.2630632322153319	-0.01973485482403653	0.04178678290189395	0.04178678290189024	-0.1744760854854907	0.1681721349429586	-0.04283391813794597	-0.01119323267255839	-0.223551083320172	-0.1288829652105447	-0.05637105934341603	0.616650790064827	-0.05022770355377461	0.1186160385777704	-0.2730097901416006	0.3734174012243089	0.3734174012244019	0.002420979741893042	0.007867592227410536	-0.0193986872622919	-0.05600899713556264	0.1087756423278827	-0.06409183012625119	-0.04051760989526108	-0.2396838117012895	0.2056088612958076	-0.01946854087497136	-0.06521450663672314	24.6762171797471	-2.123993356106317	7.084976862155233	21.82645353087109	-586.2172221071485	-75.76244855824672	-39.14213017084259	-4.086279762335259	-2.355749063589568	-1.091113520409005	11.33555642583228	-0.9095555807725285	2.219008516244182	-4.892567468315341	6.901523531453934	6.901523531451048	0.03445291237690105	0.1128515916999418	-0.3284714443408537	-1.010578234982126	-8.250265650024326e-08	1.476667041456547e-07	1.547113892003986e-07	5.403109456092893e-08	-3.715266022372069e-07	7.847104682713962e-08	-2.354362408521679e-08
0.06	-0.1675041377644991	0.05354503699791358	0.8959255408897067	0.4000245596449001	-0.2613827591303695	-0.261767488226697	-0.02270357693401785	0.04586502014165621	0.04586502014165463	-0.1744494024121563	0.1682573478069349	-0.04304312869757913	-0.01180274525211531	-0.2641491787786266	-0.1520448460217761	-0.06733523524948071	0.7289621387156668	-0.05909165041503349	0.1404255245331098	-0.3203510899788032	0.4418726558256424	0.4418726558257086	0.002901353532802892	0.009155055714363614	-0.0224072254734534	-0.06581933891473353	0.1023387865942657	-0.06283626416527163	-0.03968473151749202	-0.2351309064879441	0.2016823078484006	-0.01774923660487506	-0.05992416304229799	23.67044715551008	-2.689513720772829	7.169345131117473	21.34050424892959	-583.9714626294676	-75.80892040905263	-39.25471990748711	-4.076629985341577	-2.279918402859197	-1.10873853520429	11.20733654240283	-0.8596544216651197	2.137040836167713	-4.532317579992021	6.840737821522976	6.840737821520753	0.07943155583829034	0.1665521423845069	-0.2564739475087554	-0.9441261798397689	-9.284292861231674e-08	1.594243875898116e-07	1.677114539094864e-07	6.423998234886666e-08	-4.302439619658996e-07	8.384550198505764e-08	-2.524420182480687e-08
0.07000000000000001	-0.1703434169423374	0.05191236733565784	0.8951972994451844	0.4078614105134655	-0.2620161733643217	-0.2602569030319075	-0.02613371039888425	0.05061773677267585	0.05061773677263595	-0.1744179498262642	0.1683550519958446	-0.04328105741707118	-0.01250789198110974	-0.3034784835846407	-0.1743401987714749	-0.07831914536864841	0.8378005167268581	-0.06751578576793839	0.1615819686012915	-0.3652987407059909	0.5083232545727654	0.5083232545727748	0.003385073698773263	0.01036977005904742	-0.02513207837896841	-0.07512382046215962	0.09559117370948228	-0.06082429983821869	-0.03889097910013172	-0.2311138268232877	0.1988334832968636	-0.01689427215684322	-0.05441937548114433	22.96993376057961	-2.946381969036161	7.219676691525351	20.62513672881262	-581.8684784962427	-75.17374482644414	-39.38270615601954	-3.826860043043822	-2.181997592460061	-1.094217767943656	10.6309468640939	-0.8224967622102559	2.088489826028172	-4.419459474540992	6.495113600587062	6.495113600579744	0.03226360097607269	0.09650622002681671	-0.2735282145349756	-0.9107245102837648	-9.838124684055298e-08	1.677795935415867e-07	1.697137476648555e-07	7.199423648320628e-08	-4.619522380507899e-07	8.693575887539541e-08	-2.488993902434821e-08
